<?xml version="1.0" encoding="UTF-8"?>
<svg version="1.1" xmlns="http://www.w3.org/2000/svg" width="500" height="500">
<path d="M0 0 C0.66 0 1.32 0 2 0 C3.4453125 1.6875 3.4453125 1.6875 5.125 4 C11.09119608 12.07191417 11.09119608 12.07191417 19 18 C19 18.66 19 19.32 19 20 C19.68964844 20.25136719 20.37929687 20.50273438 21.08984375 20.76171875 C24.4379452 22.18634715 27.43562732 23.95202854 30.5625 25.8125 C36.84509552 29.464521 43.17319037 32.47347476 50 35 C51.06863281 35.39703125 52.13726562 35.7940625 53.23828125 36.203125 C66.44063175 40.84377323 80.13078999 44.07970985 93.79296875 47.05859375 C112.57203983 51.16421625 129.04698195 58.1965508 142 73 C142 73.66 142 74.32 142 75 C142.66 75 143.32 75 144 75 C144.66 76.65 145.32 78.3 146 80 C146.66 80 147.32 80 148 80 C149.73418614 82.36479929 151.35099132 84.72646561 152.9375 87.1875 C153.38029297 87.86103516 153.82308594 88.53457031 154.27929688 89.22851562 C156.59979598 92.77324228 158.851187 96.34772707 161 100 C161.45375 99.505 161.9075 99.01 162.375 98.5 C164 97 164 97 166 97 C166 96.34 166 95.68 166 95 C168.24284731 93.43212563 170.46001121 92.01130313 172.8125 90.625 C173.49739502 90.22087891 174.18229004 89.81675781 174.88793945 89.40039062 C185.39656776 83.33720076 196.39212265 79.40114044 208.6875 81.625 C218.07816889 84.18917903 225.91333215 89.62716278 230.77734375 98.09375 C231.96686345 100.36346812 233.15176873 102.63561061 234.33203125 104.91015625 C240.61788271 116.55443846 251.55481502 120.45693302 263.16650391 125.5378418 C270.7012472 128.83766742 278.16543579 132.28471514 285.625 135.75 C286.8224585 136.30502197 288.01991699 136.86004395 289.25366211 137.43188477 C295.21537673 140.20423923 301.12747725 143.04429319 307 146 C308.99440876 146.92876879 310.99371512 147.8471718 313 148.75 C313.94875 149.17796875 314.8975 149.6059375 315.875 150.046875 C316.57625 150.36140625 317.2775 150.6759375 318 151 C317.38382792 155.45669668 315.62116461 159.06116772 313.5625 163 C310.26216245 169.44928346 307.09406687 175.94929426 304 182.5 C299.78659147 191.39604302 295.43951239 200.21505167 291 209 C286.54556217 217.81671488 282.18882399 226.66319924 278.01318359 235.61572266 C274.48694127 243.1500865 270.75163627 250.57598738 267 258 C266.33248313 259.33290789 265.66532224 260.6659953 265 262 C261.40495972 261.39755973 258.40501199 260.42210619 255.10546875 258.8828125 C254.16171387 258.44614258 253.21795898 258.00947266 252.24560547 257.55957031 C251.23643066 257.08616211 250.22725586 256.61275391 249.1875 256.125 C247.02745454 255.12215717 244.86729495 254.11956012 242.70703125 253.1171875 C241.59924316 252.60124023 240.49145508 252.08529297 239.35009766 251.55371094 C235.05818632 249.56320491 230.7516898 247.60558507 226.44482422 245.64770508 C198.45099238 232.90198476 198.45099238 232.90198476 197 230 C198.86034616 223.17384794 202.53581104 216.80305488 205.72436523 210.51904297 C208.40886414 205.22119021 210.97524594 199.87563351 213.5 194.5 C217.17854344 186.68593176 220.98324417 178.94602472 224.87402344 171.23583984 C227.56737421 165.88768148 230.23723745 160.52770641 232.91333008 155.17089844 C235.07303804 150.8492151 237.23540994 146.528982 239.41015625 142.21484375 C239.77625 141.48716797 240.14234375 140.75949219 240.51953125 140.00976562 C241.19102369 138.67558308 241.86407806 137.34218492 242.5390625 136.00976562 C244.18994931 132.72585875 245.69432026 129.43634121 247 126 C246.33613281 126.27714844 245.67226563 126.55429688 244.98828125 126.83984375 C243.66376953 127.38318359 243.66376953 127.38318359 242.3125 127.9375 C241.00732422 128.47697266 241.00732422 128.47697266 239.67578125 129.02734375 C237.11820735 129.9570312 234.6778677 130.54162625 232 131 C232 131.66 232 132.32 232 133 C227.52941176 137 227.52941176 137 225 137 C224.72671875 137.56332031 224.4534375 138.12664062 224.171875 138.70703125 C223.3943083 140.22847009 222.5710292 141.72744145 221.703125 143.19921875 C218.48198848 148.71498209 216.16815223 154.14829138 214.1875 160.1875 C209.75314801 173.51144456 201.43015626 192.08018158 188.6875 199.3125 C188.130625 199.539375 187.57375 199.76625 187 200 C187 200.66 187 201.32 187 202 C175.87859034 211.55447565 163.66962931 217.95742563 150 223 C149.10796875 223.34546875 148.2159375 223.6909375 147.296875 224.046875 C124.93996781 230.51024627 100.61538779 228.32074693 79.5234375 218.98828125 C71.7539795 215.94544398 64.36546088 218.86205217 57 222 C51.1266541 224.92646799 45.32590618 228.12100707 40.21484375 232.25 C38 234 38 234 36 234 C36 234.66 36 235.32 36 236 C35.34 236 34.68 236 34 236 C34 236.66 34 237.32 34 238 C32.56353868 239.20261878 31.12285215 240.40073426 29.65625 241.56640625 C28.00056978 242.99950682 26.68056088 244.48159482 25.3125 246.1875 C22.80690963 249.23483964 21.27259617 250.82242844 17.3125 251.375 C6.40103278 250.13973956 -4.29102782 240.21960168 -11 232 C-11 231.34 -11 230.68 -11 230 C-11.66 230 -12.32 230 -13 230 C-19.32136946 221.78778103 -24.41220083 210.38445203 -25 200 C-25.061875 199.18660156 -25.12375 198.37320313 -25.1875 197.53515625 C-25.38144845 193.40769074 -25.33884443 190.69180737 -23.5 186.9375 C-18.86326262 183.34402853 -13.64911217 183.98066504 -8.0625 184.125 C7.85946386 184.27979687 24.12519205 179.1457669 39 174 C40.99929984 173.33123653 42.99911642 172.66401004 45 172 C41.24471068 167.94071107 36.97666943 165.41009764 32.265625 162.5859375 C31.51796875 162.06257812 30.7703125 161.53921875 30 161 C30 160.34 30 159.68 30 159 C29.42121094 158.73832031 28.84242187 158.47664062 28.24609375 158.20703125 C22.40205351 155.06649484 17.59367952 149.70852151 13 145 C12.32453125 144.35804688 11.6490625 143.71609375 10.953125 143.0546875 C10.22609375 142.35601562 9.4990625 141.65734375 8.75 140.9375 C8.06421875 140.28652344 7.3784375 139.63554687 6.671875 138.96484375 C4.93164751 136.91966985 4.39722943 135.62288259 4 133 C3.34 133 2.68 133 2 133 C-11.85808075 114.10840946 -19.41511175 91.4120534 -19.25 68.0625 C-19.25773437 66.97259766 -19.26546875 65.88269531 -19.2734375 64.75976562 C-19.25576207 57.32282712 -18.44561306 50.28979723 -17 43 C-16.83435547 42.15880615 -16.66871094 41.3176123 -16.49804688 40.45092773 C-13.99490777 28.16113208 -9.05741863 9.05741863 0 0 Z " fill="#2BA5F7" transform="translate(52,91)"/>
<path d="M0 0 C10.89580196 2.13085331 21.54289545 5.29786603 32 9 C32.85174805 9.29986816 33.70349609 9.59973633 34.58105469 9.90869141 C37.53599322 10.95228872 40.48719173 12.00588801 43.4375 13.0625 C44.87814819 13.57345215 44.87814819 13.57345215 46.34790039 14.09472656 C50.87258415 15.73108547 54.92740711 17.4014426 59 20 C61.0181228 20.75971108 61.0181228 20.75971108 63.0625 21.3125 C67.98365758 22.86568927 72.40135827 25.14675182 76.98046875 27.50390625 C81.21967692 29.60431599 85.57453826 31.33555643 90 33 C90 33.66 90 34.32 90 35 C90.86625 35.268125 91.7325 35.53625 92.625 35.8125 C98.52795542 37.8894658 103.6636033 40.95452782 108.875 44.375 C110.10377503 45.17638208 111.33293987 45.97716678 112.5625 46.77734375 C113.44421875 47.35137939 113.44421875 47.35137939 114.34375 47.93701172 C116.49346489 49.31670786 118.68304957 50.62624394 120.875 51.9375 C121.90625 52.618125 122.9375 53.29875 124 54 C124 54.66 124 55.32 124 56 C124.5775 56.0825 125.155 56.165 125.75 56.25 C128.6539336 57.21797787 130.03740604 58.68694284 132 61 C132 61.66 132 62.32 132 63 C132.598125 63.28875 133.19625 63.5775 133.8125 63.875 C136 65 136 65 139 67 C139 67.66 139 68.32 139 69 C139.99 69.33 140.98 69.66 142 70 C145 74.33333333 145 74.33333333 145 77 C145.66 77 146.32 77 147 77 C147.33 78.65 147.66 80.3 148 82 C148.66 82 149.32 82 150 82 C150.33 83.65 150.66 85.3 151 87 C151.66 87 152.32 87 153 87 C156.58231402 95.35873272 156.29551415 103.07985057 156 112 C155.34 112 154.68 112 154 112 C153.8453125 113.1446875 153.8453125 113.1446875 153.6875 114.3125 C152.61903594 118.48922316 150.52030527 119.65312982 147 122 C146.01 122 145.02 122 144 122 C144 122.66 144 123.32 144 124 C136.66639461 126.66026888 130.14707188 127.44814702 122.375 127.3125 C121.33408203 127.30412109 120.29316406 127.29574219 119.22070312 127.28710938 C110.7029041 127.15574295 102.40428917 126.38423586 94 125 C94 124.34 94 123.68 94 123 C93.02417969 122.86722656 92.04835938 122.73445313 91.04296875 122.59765625 C89.77066406 122.42105469 88.49835938 122.24445313 87.1875 122.0625 C85.92292969 121.88847656 84.65835938 121.71445312 83.35546875 121.53515625 C80 121 80 121 77 120 C77.763125 120.763125 78.52625 121.52625 79.3125 122.3125 C80.77098214 123.77098214 82.22149801 125.23853632 83.625 126.75 C85.09616618 128.25659086 85.09616618 128.25659086 88 129 C88 129.66 88 130.32 88 131 C88.86625 131.1546875 88.86625 131.1546875 89.75 131.3125 C92.35661158 132.10896465 93.9735311 133.19065277 96 135 C96 135.66 96 136.32 96 137 C97.32 137.33 98.64 137.66 100 138 C100 138.66 100 139.32 100 140 C100.59167969 140.18175781 101.18335938 140.36351562 101.79296875 140.55078125 C110.30494164 143.25850509 110.30494164 143.25850509 114 146 C114 146.66 114 147.32 114 148 C114.5775 148.144375 115.155 148.28875 115.75 148.4375 C117.83333333 148.95833333 119.91666667 149.47916667 122 150 C122 150.66 122 151.32 122 152 C122.680625 152.15855469 123.36125 152.31710937 124.0625 152.48046875 C132.84212595 154.59364999 141.40738161 157.24120247 150 160 C150 160.33 150 160.66 150 161 C147.36 161 144.72 161 142 161 C142.185625 161.78375 142.37125 162.5675 142.5625 163.375 C143 166 143 166 142 168 C143.98 168 145.96 168 148 168 C144.93416196 171.06583804 141.83719749 170.29172537 137.64526367 170.3293457 C136.52482666 170.32378662 135.40438965 170.31822754 134.25 170.3125 C133.11216064 170.30758545 131.97432129 170.3026709 130.80200195 170.29760742 C119.89126011 170.14586399 110.70139074 168.70765433 100.625 164.3125 C92.25967481 160.67060381 86.83218679 161.55843418 78.30078125 164.59375 C71.20486858 167.61686072 64.21961781 171.39901843 58.21484375 176.25 C56 178 56 178 54 178 C54 178.66 54 179.32 54 180 C53.34 180 52.68 180 52 180 C52 180.66 52 181.32 52 182 C50.56353868 183.20261878 49.12285215 184.40073426 47.65625 185.56640625 C46.00056978 186.99950682 44.68056088 188.48159482 43.3125 190.1875 C40.80690963 193.23483964 39.27259617 194.82242844 35.3125 195.375 C24.40103278 194.13973956 13.70897218 184.21960168 7 176 C7 175.34 7 174.68 7 174 C6.34 174 5.68 174 5 174 C-1.32136946 165.78778103 -6.41220083 154.38445203 -7 144 C-7.061875 143.18660156 -7.12375 142.37320313 -7.1875 141.53515625 C-7.38144845 137.40769074 -7.33884443 134.69180737 -5.5 130.9375 C-0.86326262 127.34402853 4.35088783 127.98066504 9.9375 128.125 C25.85946386 128.27979687 42.12519205 123.1457669 57 118 C58.99929984 117.33123653 60.99911642 116.66401004 63 116 C59.24471068 111.94071107 54.97666943 109.41009764 50.265625 106.5859375 C49.51796875 106.06257813 48.7703125 105.53921875 48 105 C48 104.34 48 103.68 48 103 C47.42121094 102.73832031 46.84242187 102.47664063 46.24609375 102.20703125 C40.40205351 99.06649484 35.59367952 93.70852151 31 89 C30.32453125 88.35804688 29.6490625 87.71609375 28.953125 87.0546875 C28.22609375 86.35601562 27.4990625 85.65734375 26.75 84.9375 C26.06421875 84.28652344 25.3784375 83.63554687 24.671875 82.96484375 C22.93164751 80.91966985 22.39722943 79.62288259 22 77 C21.34 77 20.68 77 20 77 C8.79021062 61.71860897 -0.17922514 41.9386839 -0.09765625 22.8515625 C-0.0962413 22.19417084 -0.09482635 21.53677917 -0.09336853 20.85946655 C-0.08781762 18.78126269 -0.07527465 16.70317073 -0.0625 14.625 C-0.05747864 13.20703282 -0.05291685 11.78906393 -0.04882812 10.37109375 C-0.03786437 6.91402678 -0.02063421 3.45702433 0 0 Z " fill="#0F8DD1" transform="translate(34,147)"/>
<path d="M0 0 C8.84442284 2.57220351 16.8977203 6.68632339 25.125 10.75 C27.95985657 12.14283364 30.79616213 13.5326988 33.6328125 14.921875 C34.32884583 15.26311401 35.02487915 15.60435303 35.74200439 15.95593262 C45.06510123 20.51567445 54.44400194 24.94778259 64 29 C63.38382792 33.45669668 61.62116461 37.06116772 59.5625 41 C56.26216245 47.44928346 53.09406687 53.94929426 50 60.5 C45.78659147 69.39604302 41.43951239 78.21505167 37 87 C32.54556217 95.81671488 28.18882399 104.66319924 24.01318359 113.61572266 C20.48694127 121.1500865 16.75163627 128.57598738 13 136 C12.33248313 137.33290789 11.66532224 138.6659953 11 140 C7.40495972 139.39755973 4.40501199 138.42210619 1.10546875 136.8828125 C0.16171387 136.44614258 -0.78204102 136.00947266 -1.75439453 135.55957031 C-2.76356934 135.08616211 -3.77274414 134.61275391 -4.8125 134.125 C-6.97254546 133.12215717 -9.13270505 132.11956012 -11.29296875 131.1171875 C-12.40075684 130.60124023 -13.50854492 130.08529297 -14.64990234 129.55371094 C-18.94181368 127.56320491 -23.2483102 125.60558507 -27.55517578 123.64770508 C-55.54900762 110.90198476 -55.54900762 110.90198476 -57 108 C-55.13965384 101.17384794 -51.46418896 94.80305488 -48.27563477 88.51904297 C-45.59113586 83.22119021 -43.02475406 77.87563351 -40.5 72.5 C-36.82145656 64.68593176 -33.01675583 56.94602472 -29.12597656 49.23583984 C-26.90676842 44.82918153 -24.70515395 40.41370276 -22.5 36 C-21.56256467 34.12496766 -20.62506554 32.24996723 -19.6875 30.375 C-19.23503906 29.47007812 -18.78257812 28.56515625 -18.31640625 27.6328125 C-12.15820312 15.31640625 -12.15820312 15.31640625 -6 3 C-5.01 3 -4.02 3 -3 3 C-2.01 9.27 -1.02 15.54 0 22 C-0.25136719 19.86917969 -0.25136719 19.86917969 -0.5078125 17.6953125 C-0.71411332 15.83860509 -0.91981135 13.98183064 -1.125 12.125 C-1.23714844 11.18785156 -1.34929687 10.25070313 -1.46484375 9.28515625 C-1.56152344 8.38925781 -1.65820312 7.49335938 -1.7578125 6.5703125 C-1.8520752 5.74289551 -1.94633789 4.91547852 -2.04345703 4.06298828 C-2 2 -2 2 0 0 Z " fill="#FDF6E4" transform="translate(306,213)"/>
<path d="M0 0 C0.99 0 1.98 0 3 0 C4.90858766 10.75852688 6.53132662 21.03892859 6 32 C6.66 32 7.32 32 8 32 C8.05534912 32.56509277 8.11069824 33.13018555 8.16772461 33.71240234 C8.42024372 36.26702332 8.67879723 38.82099815 8.9375 41.375 C9.06801758 42.70917969 9.06801758 42.70917969 9.20117188 44.0703125 C9.33168945 45.34648437 9.33168945 45.34648437 9.46484375 46.6484375 C9.543396 47.43395996 9.62194824 48.21948242 9.70288086 49.02880859 C9.90696298 51.07134803 9.90696298 51.07134803 11 53 C11.375 55.75 11.375 55.75 11 59 C9.35830472 61.02054804 7.69088222 63.02043058 6 65 C5.96648437 65.928125 5.93296875 66.85625 5.8984375 67.8125 C4.46122508 72.9114797 0.47491009 74.43969221 -3.9375 77 C-4.80616699 77.52255371 -5.67483398 78.04510742 -6.56982422 78.58349609 C-8.28108338 79.61114938 -9.99679845 80.63142591 -11.71728516 81.64355469 C-14.39802721 83.23651756 -17.00531537 84.93407478 -19.625 86.625 C-23.95912447 89.21937028 -28.02924513 90.19826534 -33 91 C-33 92.32 -33 93.64 -33 95 C-35.72449138 97.75279778 -39.16729627 99.91778525 -43.08984375 100.09375 C-45 99.8125 -45 99.8125 -48 99 C-46.5720038 94.30492159 -44.61814525 90.03521783 -42.375 85.6875 C-39.48438054 80.00155622 -36.69172697 74.28272123 -34 68.5 C-30.50880317 61.02237706 -26.85927392 53.63547374 -23.14208984 46.26806641 C-20.91765988 41.85059005 -18.71051995 37.42444827 -16.5 33 C-15.56256468 31.12496766 -14.62506553 29.24996723 -13.6875 27.375 C-13.23503906 26.47007812 -12.78257812 25.56515625 -12.31640625 24.6328125 C-6.15820312 12.31640625 -6.15820312 12.31640625 0 0 Z " fill="#FDF7E4" transform="translate(300,216)"/>
<path d="M0 0 C1.63671875 2.01171875 1.63671875 2.01171875 1.63671875 3.01171875 C-0.67328125 3.01171875 -2.98328125 3.01171875 -5.36328125 3.01171875 C-5.36328125 3.67171875 -5.36328125 4.33171875 -5.36328125 5.01171875 C-6.15992188 5.23085937 -6.9565625 5.45 -7.77734375 5.67578125 C-14.71153259 7.75097645 -18.62593092 9.58109764 -23.36328125 15.01171875 C-24.25015625 15.52734375 -25.13703125 16.04296875 -26.05078125 16.57421875 C-28.8368498 18.3060992 -29.76690045 20.19904782 -31.36328125 23.01171875 C-32.02328125 23.01171875 -32.68328125 23.01171875 -33.36328125 23.01171875 C-33.54503906 23.615 -33.72679687 24.21828125 -33.9140625 24.83984375 C-35.27338659 29.16179727 -36.54757959 32.42809845 -39.36328125 36.01171875 C-40.07761246 38.66106697 -40.07761246 38.66106697 -40.36328125 41.01171875 C-43.36328125 40.01171875 -43.36328125 40.01171875 -44.86328125 37.02734375 C-45.37424104 35.77655677 -45.87381587 34.52107239 -46.36328125 33.26171875 C-48.07796208 28.95715543 -49.9638095 24.98277433 -52.36328125 21.01171875 C-52.73828125 18.38671875 -52.73828125 18.38671875 -52.36328125 16.01171875 C-50.98828125 14.19921875 -50.98828125 14.19921875 -49.36328125 13.01171875 C-48.70328125 13.01171875 -48.04328125 13.01171875 -47.36328125 13.01171875 C-47.36328125 12.35171875 -47.36328125 11.69171875 -47.36328125 11.01171875 C-45.12051994 9.4439045 -42.90281404 8.02358372 -40.55078125 6.63671875 C-39.86951172 6.23259766 -39.18824219 5.82847656 -38.48632812 5.41210938 C-28.66145349 -0.27986025 -10.21530283 -8.59436221 0 0 Z " fill="#138ED3" transform="translate(265.36328125,174.98828125)"/>
<path d="M0 0 C2.95200387 1.31129786 4.75867538 2.64302618 6.875 5.0625 C15.65452573 14.06666178 27.76768152 19.69110783 39 25 C39.140625 30.703125 39.140625 30.703125 37.875 33.375 C36 35 36 35 33.3984375 35.3828125 C28.76490186 34.860874 25.67054165 32.92328899 21.75 30.5 C20.99928223 30.04657227 20.24856445 29.59314453 19.47509766 29.12597656 C13.59525117 25.51209636 8.2314734 21.50082069 3 17 C2.27683594 16.46632812 1.55367187 15.93265625 0.80859375 15.3828125 C-1.00943693 14.00950557 -2.5731186 12.7751372 -4 11 C-4.18154642 6.55211268 -2.45422818 3.62798949 0 0 Z " fill="#056CA5" transform="translate(43,116)"/>
<path d="M0 0 C3.29780264 0.66867888 5.91661882 1.91482379 8.875 3.5 C12.60293814 5.41360138 15.76674138 6.66579537 20 7 C20 7.66 20 8.32 20 9 C21.32 9 22.64 9 24 9 C24 9.66 24 10.32 24 11 C24.80824219 11.02578125 25.61648437 11.0515625 26.44921875 11.078125 C35.07152497 11.53576248 35.07152497 11.53576248 39.25 13.625 C41.61918861 16.8403274 41.37450951 19.10510108 41 23 C34.89757963 26.05121018 27.77560835 23.32380332 21.73828125 21.3515625 C2.33715221 14.33715221 2.33715221 14.33715221 0 12 C-0.07244053 9.98035801 -0.08377188 7.95832876 -0.0625 5.9375 C-0.05347656 4.83277344 -0.04445312 3.72804687 -0.03515625 2.58984375 C-0.02355469 1.73519531 -0.01195312 0.88054687 0 0 Z " fill="#056AA3" transform="translate(34,150)"/>
<path d="M0 0 C4.23429756 1.31061591 8.07407404 2.94356259 12 5 C11.44414576 9.78612158 10.04568585 13.30810841 7.8125 17.5625 C7.18052393 18.78424346 6.55035915 20.00692532 5.921875 21.23046875 C5.44331055 22.15931885 5.44331055 22.15931885 4.95507812 23.10693359 C2.48693958 27.99904666 0.26265028 33.01056605 -2 38 C-5.81583379 37.34820749 -8.02881405 36.53101025 -11 34 C-10.195625 34.165 -9.39125 34.33 -8.5625 34.5 C-6.2715557 35.03191839 -6.2715557 35.03191839 -5 35 C-8.465 33.02 -8.465 33.02 -12 31 C-11.505 29.515 -11.505 29.515 -11 28 C-7.7 28.99 -4.4 29.98 -1 31 C-1 30.34 -1 29.68 -1 29 C-1.94875 28.855625 -2.8975 28.71125 -3.875 28.5625 C-7 28 -7 28 -9 27 C-8.67 25.35 -8.34 23.7 -8 22 C-5.03 22.99 -2.06 23.98 1 25 C1.33 24.67 1.66 24.34 2 24 C0.57086153 23.27494442 -0.86870658 22.57041565 -2.3125 21.875 C-3.11300781 21.48054688 -3.91351563 21.08609375 -4.73828125 20.6796875 C-5.48464844 20.45539063 -6.23101562 20.23109375 -7 20 C-7.99 20.66 -8.98 21.32 -10 22 C-9.36042408 19.11342911 -8.449403 16.59695589 -7.1875 13.92578125 C-6.65769531 12.80139648 -6.65769531 12.80139648 -6.1171875 11.65429688 C-5.56417969 10.49510742 -5.56417969 10.49510742 -5 9.3125 C-4.63132812 8.52810547 -4.26265625 7.74371094 -3.8828125 6.93554688 C-1.13585283 1.13585283 -1.13585283 1.13585283 0 0 Z " fill="#D7C4AC" transform="translate(348,241)"/>
<path d="M0 0 C1.52242851 0.43191634 3.04285919 0.87087562 4.5625 1.3125 C5.83287109 1.67794922 5.83287109 1.67794922 7.12890625 2.05078125 C10 3 10 3 13.2890625 4.5390625 C17.53862109 6.21204662 21.2988004 6.69059934 25.8125 7.0625 C33.73925601 7.73925601 33.73925601 7.73925601 36 10 C36.3125 13.5 36.3125 13.5 36 17 C30.93770252 20.37486499 24.90883685 19.73509469 19.03710938 18.63085938 C14.62881444 17.62994217 10.29434517 16.41424348 6 15 C5.22140625 14.7628125 4.4428125 14.525625 3.640625 14.28125 C2 13 2 13 1.171875 9.9609375 C1.03265625 8.77757812 0.8934375 7.59421875 0.75 6.375 C0.60046875 5.18648437 0.4509375 3.99796875 0.296875 2.7734375 C0.19890625 1.85820312 0.1009375 0.94296875 0 0 Z " fill="#046AA2" transform="translate(37,183)"/>
<path d="M0 0 C1 3 1 3 1 6 C1.99 6.33 2.98 6.66 4 7 C4.33 6.01 4.66 5.02 5 4 C5.66 4 6.32 4 7 4 C6.7834375 4.98742187 6.566875 5.97484375 6.34375 6.9921875 C6.0653125 8.27351563 5.786875 9.55484375 5.5 10.875 C5.2215625 12.15117187 4.943125 13.42734375 4.65625 14.7421875 C3.93417593 17.7728941 3.93417593 17.7728941 4 20 C4.66 19.67 5.32 19.34 6 19 C6.65213292 16.97536745 6.65213292 16.97536745 7 15 C6.34 15 5.68 15 5 15 C5.8125 13.0625 5.8125 13.0625 7 11 C7.99 10.67 8.98 10.34 10 10 C11.66710346 8.50014391 11.66710346 8.50014391 13 7 C11.21666237 12.76677113 8.86350213 18.26619867 6.5 23.8125 C6.09652344 24.77865234 5.69304687 25.74480469 5.27734375 26.74023438 C4.88675781 27.65740234 4.49617188 28.57457031 4.09375 29.51953125 C3.73990234 30.35589111 3.38605469 31.19225098 3.02148438 32.05395508 C2 34 2 34 0 35 C0 33.02 0 31.04 0 29 C-1.32 28.67 -2.64 28.34 -4 28 C-4 29.32 -4 30.64 -4 32 C-5.32 31.67 -6.64 31.34 -8 31 C-7.34 29.02 -6.68 27.04 -6 25 C-5.01 25 -4.02 25 -3 25 C-2.67 22.69 -2.34 20.38 -2 18 C-2.99 18 -3.98 18 -5 18 C-6.40035046 19.70150385 -6.40035046 19.70150385 -7.5625 21.875 C-8.94122232 24.27165749 -10.03227554 26.03227554 -12 28 C-11.38361646 24.27657443 -10.3201056 21.16152797 -8.75 17.734375 C-8.08484375 16.27644531 -8.08484375 16.27644531 -7.40625 14.7890625 C-6.71015625 13.28472656 -6.71015625 13.28472656 -6 11.75 C-5.30390625 10.22246094 -5.30390625 10.22246094 -4.59375 8.6640625 C-1.14501232 1.14501232 -1.14501232 1.14501232 0 0 Z M-2 8 C-1 10 -1 10 -1 10 Z " fill="#F6F1E2" transform="translate(312,306)"/>
<path d="M0 0 C4.45827926 -0.0578304 8.9164628 -0.09353855 13.375 -0.125 C15.28152344 -0.15013672 15.28152344 -0.15013672 17.2265625 -0.17578125 C18.43828125 -0.18222656 19.65 -0.18867188 20.8984375 -0.1953125 C22.01911621 -0.20578613 23.13979492 -0.21625977 24.29443359 -0.22705078 C27 0 27 0 29 2 C29.125 5.625 29.125 5.625 29 9 C24.86845479 10.1066639 20.87723416 11.07964557 16.625 11.5625 C13.17431139 11.7725021 13.17431139 11.7725021 11 13 C10.1646875 12.3503125 10.1646875 12.3503125 9.3125 11.6875 C7.03934462 9.91949215 7.03934462 9.91949215 4.375 8.75 C1.10045486 6.33717727 0.96707277 3.85054662 0 0 Z " fill="#096CA3" transform="translate(55,221)"/>
<path d="M0 0 C1.5625 2.375 1.5625 2.375 1.3125 5.625 C1.065 6.5325 0.8175 7.44 0.5625 8.375 C-5.93609823 10.73812663 -13.92889475 12.14832897 -20.54296875 9.546875 C-22.1875 8.5 -22.1875 8.5 -24.4375 6.375 C-24.4375 5.715 -24.4375 5.055 -24.4375 4.375 C-25.4275 4.045 -26.4175 3.715 -27.4375 3.375 C-27.1075 2.385 -26.7775 1.395 -26.4375 0.375 C-23.56293208 0.03752452 -20.68793941 -0.29510463 -17.8125 -0.625 C-16.60013672 -0.76808594 -16.60013672 -0.76808594 -15.36328125 -0.9140625 C-3.41162109 -2.27441406 -3.41162109 -2.27441406 0 0 Z " fill="#046AA3" transform="translate(106.4375,245.625)"/>
<path d="M0 0 C9.21627045 -0.30892527 17.91214765 0.60950893 27 2 C27.495 3.485 27.495 3.485 28 5 C17.18655687 9.57491825 6.3915691 10.30367816 -5.25 10.125 C-6.38824219 10.11597656 -7.52648437 10.10695313 -8.69921875 10.09765625 C-11.46637881 10.0744028 -14.2330676 10.04172868 -17 10 C-17 9.67 -17 9.34 -17 9 C-6.605 8.505 -6.605 8.505 4 8 C2.68 7.67 1.36 7.34 0 7 C0 4.69 0 2.38 0 0 Z " fill="#118DD3" transform="translate(176,308)"/>
<path d="M0 0 C5.75 1.875 5.75 1.875 8 3 C8 3.66 8 4.32 8 5 C8.66 5 9.32 5 10 5 C10.66 3.68 11.32 2.36 12 1 C11.40915596 4.52055917 10.4844458 7.43361222 8.93359375 10.64453125 C8.53076172 11.48564453 8.12792969 12.32675781 7.71289062 13.19335938 C7.08157227 14.48983398 7.08157227 14.48983398 6.4375 15.8125 C5.80038086 17.13797852 5.80038086 17.13797852 5.15039062 18.49023438 C4.10528576 20.66264337 3.05503238 22.83239957 2 25 C-1.81583379 24.34820749 -4.02881405 23.53101025 -7 21 C-6.195625 21.165 -5.39125 21.33 -4.5625 21.5 C-2.2715557 22.03191839 -2.2715557 22.03191839 -1 22 C-4.465 20.02 -4.465 20.02 -8 18 C-7.505 16.515 -7.505 16.515 -7 15 C-3.7 15.99 -0.4 16.98 3 18 C3 17.34 3 16.68 3 16 C2.05125 15.855625 1.1025 15.71125 0.125 15.5625 C-3 15 -3 15 -5 14 C-4.67 12.35 -4.34 10.7 -4 9 C-1.03 9.99 1.94 10.98 5 12 C5.33 11.67 5.66 11.34 6 11 C3.36 9.35 0.72 7.7 -2 6 C-1.34 4.02 -0.68 2.04 0 0 Z " fill="#CCB59B" transform="translate(344,254)"/>
<path d="M0 0 C4.05191622 0.62337173 6.91762392 2.33794793 10 5 C10.75 8.4375 10.75 8.4375 10 12 C7.27003747 14.98391253 5.36415666 16.70768072 1.375 17.5625 C-1.91535463 16.78320548 -3.07468381 15.78101227 -5 13 C-5.57206406 9.56761563 -5.77845508 7.2309826 -3.87109375 4.21484375 C-2.65295598 2.74683156 -1.33211922 1.3654222 0 0 Z " fill="#A9332F" transform="translate(311,274)"/>
<path d="M0 0 C1 3 1 3 1 6 C1.99 6.33 2.98 6.66 4 7 C4.33 6.01 4.66 5.02 5 4 C5.66 4 6.32 4 7 4 C5.44071133 10.86087016 2.24242526 16.79044974 -1 23 C-2 20 -2 20 -3 17 C-6.68006822 20.38168431 -8.9785845 23.42521756 -11 28 C-12.29092162 24.12723515 -11.42823722 23.13232799 -9.7265625 19.4921875 C-9.2315625 18.42355469 -8.7365625 17.35492188 -8.2265625 16.25390625 C-7.69804687 15.13886719 -7.16953125 14.02382813 -6.625 12.875 C-5.84382813 11.19083984 -5.84382813 11.19083984 -5.046875 9.47265625 C-1.17306193 1.17306193 -1.17306193 1.17306193 0 0 Z M-2 8 C-1 10 -1 10 -1 10 Z " fill="#CAC5B9" transform="translate(312,306)"/>
<path d="M0 0 C3.63 1.32 7.26 2.64 11 4 C10.01 5.485 10.01 5.485 9 7 C6.03 6.01 3.06 5.02 0 4 C-0.33 5.32 -0.66 6.64 -1 8 C0.918125 8.2784375 0.918125 8.2784375 2.875 8.5625 C3.59429687 8.66691406 4.31359375 8.77132813 5.0546875 8.87890625 C7.08140667 9.1684297 7.08140667 9.1684297 9 8 C8.34 9.98 7.68 11.96 7 14 C6.67 13.34 6.34 12.68 6 12 C4.18703385 11.37907282 4.18703385 11.37907282 2 11 C1.0925 10.814375 0.185 10.62875 -0.75 10.4375 C-1.4925 10.293125 -2.235 10.14875 -3 10 C-3.33 10.66 -3.66 11.32 -4 12 C-3.2575 12.28875 -2.515 12.5775 -1.75 12.875 C0.56739797 13.82302644 2.77917115 14.84845911 5 16 C4.67 16.66 4.34 17.32 4 18 C0.37 16.68 -3.26 15.36 -7 14 C-4.125 5.25 -4.125 5.25 -3 3 C-2.34 3 -1.68 3 -1 3 C-0.67 2.01 -0.34 1.02 0 0 Z " fill="#CFB9A2" transform="translate(340,260)"/>
<path d="M0 0 C3 0.25 3 0.25 5 2.25 C5.25 5.75 5.25 5.75 5 9.25 C3 11.25 3 11.25 0 11.5625 C-0.99 11.459375 -1.98 11.35625 -3 11.25 C-5.30163882 7.79754176 -5.34490322 6.30261287 -5 2.25 C-3 0.25 -3 0.25 0 0 Z " fill="#41535D" transform="translate(255,196.75)"/>
<path d="M0 0 C4.05191622 0.62337173 6.91762392 2.33794793 10 5 C10.75 8.4375 10.75 8.4375 10 12 C7.27003747 14.98391253 5.36415666 16.70768072 1.375 17.5625 C-1.91535463 16.78320548 -3.07468381 15.78101227 -5 13 C-5.57206406 9.56761563 -5.77845508 7.2309826 -3.87109375 4.21484375 C-2.65295598 2.74683156 -1.33211922 1.3654222 0 0 Z M0 2 C0 2.66 0 3.32 0 4 C-0.99 4.33 -1.98 4.66 -3 5 C-3.16677282 8.41656024 -3.16677282 8.41656024 -3 12 C-1.11499729 14.31563087 -1.11499729 14.31563087 2 14.25 C5.11499729 14.31563087 5.11499729 14.31563087 7 12 C7.48408063 8.28871513 7.48899662 6.64075419 5.1875 3.625 C3.05279952 1.701838 3.05279952 1.701838 0 2 Z " fill="#BD4438" transform="translate(311,274)"/>
<path d="M0 0 C0.66 0.33 1.32 0.66 2 1 C-2.09672885 3.79466774 -6.21428423 6.54056539 -10.45703125 9.109375 C-11.33645386 9.64208008 -11.33645386 9.64208008 -12.23364258 10.18554688 C-13.94474662 11.21670287 -15.65981195 12.24127658 -17.375 13.265625 C-20.07643324 14.73643111 -20.07643324 14.73643111 -21 17 C-21.763125 17.28875 -22.52625 17.5775 -23.3125 17.875 C-26.10259207 18.82820381 -26.10259207 18.82820381 -27.9375 21.0625 C-30.54272138 23.50982918 -32.50259478 23.68205407 -36 24 C-33.23129521 21.02620597 -30.47740928 19.06764876 -27 17 C-26.67 16.34 -26.34 15.68 -26 15 C-26.66 14.67 -27.32 14.34 -28 14 C-25.74446018 13.05412846 -23.52483969 12.13788161 -21.15625 11.515625 C-14.89569572 9.78696449 -9.99004457 6.61953304 -4.69750977 2.96069336 C-3.16732785 1.91936979 -1.58694319 0.95258741 0 0 Z " fill="#D9C4A6" transform="translate(294,293)"/>
<path d="M0 0 C3.71888239 0.50712033 6.73454239 1.11608215 10 3 C10 2.34 10 1.68 10 1 C10.66 1 11.32 1 12 1 C11.38983051 6.49152542 11.38983051 6.49152542 9.5625 8.875 C8 10 8 10 6 10 C5.01 10.495 5.01 10.495 4 11 C1.96166576 9.7260411 -0.03852126 8.38938077 -2 7 C-2 6.34 -2 5.68 -2 5 C-0.68 5 0.64 5 2 5 C1.01 4.67 0.02 4.34 -1 4 C-0.67 2.68 -0.34 1.36 0 0 Z " fill="#BAA594" transform="translate(348,245)"/>
<path d="M0 0 C5.75 1.875 5.75 1.875 8 3 C8 3.66 8 4.32 8 5 C8.66 5 9.32 5 10 5 C10.66 3.68 11.32 2.36 12 1 C11.44271087 4.34373475 10.64826111 7.03312999 9 10 C4.18569279 10.56638908 1.79692186 8.82561627 -2 6 C-1.34 4.02 -0.68 2.04 0 0 Z " fill="#AEA59F" transform="translate(344,254)"/>
<path d="M0 0 C1.32 1.65 2.64 3.3 4 5 C3.01 5.495 3.01 5.495 2 6 C0.15372885 10.50028594 -0.67343089 15.16136582 -1.53515625 19.92578125 C-2 22 -2 22 -3 23 C-3.15786308 24.85174706 -3.25107356 26.7090911 -3.31640625 28.56640625 C-3.35830078 29.69111328 -3.40019531 30.81582031 -3.44335938 31.97460938 C-3.48267578 33.15861328 -3.52199219 34.34261719 -3.5625 35.5625 C-3.60568359 36.75037109 -3.64886719 37.93824219 -3.69335938 39.16210938 C-3.79983546 42.10794784 -3.90184841 45.0538743 -4 48 C-4.33 48 -4.66 48 -5 48 C-5.0590068 43.91672939 -5.09392935 39.83357118 -5.125 35.75 C-5.14175781 34.61046875 -5.15851562 33.4709375 -5.17578125 32.296875 C-5.21920886 24.65361573 -4.5180218 17.48794107 -3 10 C-2.82218994 9.10998291 -2.64437988 8.21996582 -2.46118164 7.30297852 C-1.17199913 1.17199913 -1.17199913 1.17199913 0 0 Z " fill="#95D1F2" transform="translate(38,124)"/>
<path d="M0 0 C0.66 0 1.32 0 2 0 C3.62109375 1.828125 3.62109375 1.828125 5.4375 4.25 C6.33275391 5.43335937 6.33275391 5.43335937 7.24609375 6.640625 C7.82488281 7.41921875 8.40367188 8.1978125 9 9 C9.56847656 9.75796875 10.13695313 10.5159375 10.72265625 11.296875 C11.35494141 12.13992187 11.35494141 12.13992187 12 13 C9.525 12.505 9.525 12.505 7 12 C7 11.34 7 10.68 7 10 C5.35 10 3.7 10 2 10 C2 8.02 2 6.04 2 4 C1.01 4.66 0.02 5.32 -1 6 C-1 6.99 -1 7.98 -1 9 C-1.99 9.66 -2.98 10.32 -4 11 C-4.72965366 13.56282742 -4.72965366 13.56282742 -5 16 C-5.66 15.67 -6.32 15.34 -7 15 C-5.35544513 9.39356295 -3.66043672 4.60506555 0 0 Z M1 10 C1 13 1 13 1 13 Z " fill="#77BEEB" transform="translate(52,91)"/>
<path d="M0 0 C0.33 0.66 0.66 1.32 1 2 C0.13549805 4.50610352 0.13549805 4.50610352 -1.23828125 7.62890625 C-1.72876953 8.74587891 -2.21925781 9.86285156 -2.72460938 11.01367188 C-3.24861328 12.18478516 -3.77261719 13.35589844 -4.3125 14.5625 C-4.82490234 15.73748047 -5.33730469 16.91246094 -5.86523438 18.12304688 C-9.74125696 26.87062848 -9.74125696 26.87062848 -12 28 C-11.77183594 27.38511719 -11.54367187 26.77023437 -11.30859375 26.13671875 C-10.87740234 24.92435547 -10.87740234 24.92435547 -10.4375 23.6875 C-10.14746094 22.88699219 -9.85742188 22.08648437 -9.55859375 21.26171875 C-8.75084375 18.8566826 -8.75084375 18.8566826 -10 16 C-10.33 15.01 -10.66 14.02 -11 13 C-10.01 12.34 -9.02 11.68 -8 11 C-8 11.66 -8 12.32 -8 13 C-7.34 12.67 -6.68 12.34 -6 12 C-5.34786708 9.97536745 -5.34786708 9.97536745 -5 8 C-5.66 8 -6.32 8 -7 8 C-6.1875 6.0625 -6.1875 6.0625 -5 4 C-4.01 3.67 -3.02 3.34 -2 3 C-1.34 2.01 -0.68 1.02 0 0 Z " fill="#BAB5AB" transform="translate(324,313)"/>
<path d="M0 0 C4.875 1.75 4.875 1.75 6 4 C5.01 4 4.02 4 3 4 C3.2165625 5.16917969 3.433125 6.33835938 3.65625 7.54296875 C3.93772917 9.09110418 4.21896644 10.63928361 4.5 12.1875 C4.64308594 12.95642578 4.78617187 13.72535156 4.93359375 14.51757812 C5.63238715 18.39421773 6.19039017 22.041471 6 26 C3.23737632 23.23737632 3.38188667 21.02937912 2.875 17.1875 C2.70742188 15.96417969 2.53984375 14.74085938 2.3671875 13.48046875 C2 10 2 10 2 5 C-2.62 6.32 -7.24 7.64 -12 9 C-12.66 8.34 -13.32 7.68 -14 7 C-13.32453125 6.80664062 -12.6490625 6.61328125 -11.953125 6.4140625 C-10.61507813 6.02347656 -10.61507813 6.02347656 -9.25 5.625 C-8.36828125 5.36976563 -7.4865625 5.11453125 -6.578125 4.8515625 C-4.23919428 4.0790066 -2.16557438 3.16374324 0 2 C0 1.34 0 0.68 0 0 Z " fill="#9BBBC9" transform="translate(301,211)"/>
<path d="M0 0 C-6.05467923 6.05467923 -18.55102454 6.11204945 -26.640625 6.1953125 C-28.84383609 6.18227575 -31.0470098 6.15881213 -33.25 6.125 C-34.38824219 6.11597656 -35.52648437 6.10695313 -36.69921875 6.09765625 C-39.46637881 6.0744028 -42.2330676 6.04172868 -45 6 C-45 5.67 -45 5.34 -45 5 C-44.37432129 4.97494385 -43.74864258 4.9498877 -43.10400391 4.92407227 C-40.27745381 4.80824727 -37.45124831 4.68546015 -34.625 4.5625 C-33.14773437 4.50352539 -33.14773437 4.50352539 -31.640625 4.44335938 C-30.22910156 4.38051758 -30.22910156 4.38051758 -28.7890625 4.31640625 C-27.48509521 4.26141968 -27.48509521 4.26141968 -26.15478516 4.20532227 C-23.9516738 4.12598456 -23.9516738 4.12598456 -22 3 C-20.42007483 2.8209797 -18.8356711 2.68022407 -17.25 2.5625 C-11.23307035 2.02650914 -6.09798268 -0.29038013 0 0 Z " fill="#71BBDC" transform="translate(204,312)"/>
<path d="M0 0 C2.233947 3.3509205 2.36274239 5.18819956 2.65625 9.0625 C2.9230571 11.31880605 2.9230571 11.31880605 5 14 C5.31884766 15.99291992 5.31884766 15.99291992 5.4140625 18.23046875 C5.45273437 19.03291016 5.49140625 19.83535156 5.53125 20.66210938 C5.5621875 21.49548828 5.593125 22.32886719 5.625 23.1875 C5.66367187 24.03248047 5.70234375 24.87746094 5.7421875 25.74804688 C5.83636279 27.83167524 5.91926675 29.91580753 6 32 C5.34 32 4.68 32 4 32 C2.2346933 26.4889795 1.42618699 21.18882 0.875 15.4375 C0.78863281 14.61314453 0.70226562 13.78878906 0.61328125 12.93945312 C0.17693574 8.60716555 -0.098942 4.36051518 0 0 Z " fill="#DBC19F" transform="translate(307,242)"/>
<path d="M0 0 C7.03002445 -0.25358806 13.56782269 0.31272623 20.49609375 1.48828125 C26.63404537 2.38468221 32.80840741 2.67457743 39 3 C39 3.33 39 3.66 39 4 C12.0423526 4.61916858 12.0423526 4.61916858 0 1 C0 0.67 0 0.34 0 0 Z " fill="#48A0D0" transform="translate(141,313)"/>
<path d="M0 0 C1.43596936 2.87193872 0.97930968 5.30116975 0.875 8.5 C0.81113291 14.15514018 1.41912616 18.64714634 3.44140625 23.9140625 C4.08665156 26.32357994 3.79689025 27.66738084 3 30 C-0.82900119 21.148774 -3.00362193 12.7300296 -2 3 C-1.34 2.01 -0.68 1.02 0 0 Z " fill="#53A3CF" transform="translate(29,278)"/>
<path d="M0 0 C-7.52329106 3.57932088 -14.76764081 3.54639688 -23 3.6875 C-24.36070879 3.72073151 -25.72138733 3.75522641 -27.08203125 3.79101562 C-30.38793761 3.87307713 -33.6935926 3.94236713 -37 4 C-36.67 3.34 -36.34 2.68 -36 2 C-31.56016021 1.17780745 -27.38192851 0.9758283 -22.875 1.0625 C-17.119353 1.1431113 -11.63415156 0.29870043 -5.96875 -0.66015625 C-3 -1 -3 -1 0 0 Z " fill="#54A4CF" transform="translate(67,274)"/>
<path d="M0 0 C0.99 0.33 1.98 0.66 3 1 C3.33 1.99 3.66 2.98 4 4 C4.66 4.33 5.32 4.66 6 5 C6.33 5.99 6.66 6.98 7 8 C9.00016466 9.20882096 9.00016466 9.20882096 11 10 C11 11.32 11 12.64 11 14 C11.99 14 12.98 14 14 14 C14.12375 14.639375 14.2475 15.27875 14.375 15.9375 C14.58125 16.618125 14.7875 17.29875 15 18 C15.66 18.33 16.32 18.66 17 19 C14 19 14 19 12.17578125 17.5390625 C11.25345703 16.59160156 11.25345703 16.59160156 10.3125 15.625 C9.68988281 14.99851562 9.06726562 14.37203125 8.42578125 13.7265625 C7 12 7 12 7 10 C6.34 10 5.68 10 5 10 C3.7109375 8.3203125 3.7109375 8.3203125 2.375 6.125 C1.92898437 5.40570313 1.48296875 4.68640625 1.0234375 3.9453125 C0 2 0 2 0 0 Z " fill="#4CA3D2" transform="translate(34,311)"/>
<path d="M0 0 C2 3 2 3 1.875 5.375 C2.0450198 8.94541581 3.64241147 10.42138755 6 13 C5.67 13.66 5.34 14.32 5 15 C4.38125 14.34 3.7625 13.68 3.125 13 C1.24362573 10.7715451 1.24362573 10.7715451 -1 11 C-1.99 13.31 -2.98 15.62 -4 18 C-4.33 18 -4.66 18 -5 18 C-4.51030705 11.38914524 -2.66557258 6.05022986 0 0 Z " fill="#50AEE8" transform="translate(44,106)"/>
<path d="M0 0 C1.32 0.66 2.64 1.32 4 2 C4 2.66 4 3.32 4 4 C4.99 3.67 5.98 3.34 7 3 C9 5 9 5 9.1171875 7.05859375 C8.45703839 13.54296161 8.45703839 13.54296161 5.9375 16.0625 C4.9784375 16.5265625 4.9784375 16.5265625 4 17 C3.34 16.67 2.68 16.34 2 16 C2.495 15.649375 2.99 15.29875 3.5 14.9375 C5.28943996 12.94397706 5.28943996 12.94397706 5.5625 9.5625 C5.36605 5.74270113 5.36605 5.74270113 2 3.5625 C1.01 3.046875 0.02 2.53125 -1 2 C-0.67 1.34 -0.34 0.68 0 0 Z " fill="#FAD7C4" transform="translate(315,273)"/>
<path d="M0 0 C0.33 0 0.66 0 1 0 C1.28875 1.093125 1.5775 2.18625 1.875 3.3125 C2.81893204 7.04013845 2.81893204 7.04013845 5 10 C2.28194138 11.35902931 0.03084617 11 -3 11 C-5.00569659 11.29714023 -7.00822259 11.62061383 -9 12 C-6.22719294 8.91910327 -3.93673644 7.31224548 0 6 C0 4.02 0 2.04 0 0 Z " fill="#E6C4A9" transform="translate(305,281)"/>
<path d="M0 0 C0.33 0 0.66 0 1 0 C1.06058594 0.71027344 1.12117188 1.42054688 1.18359375 2.15234375 C1.26738281 3.07144531 1.35117187 3.99054688 1.4375 4.9375 C1.51871094 5.85402344 1.59992187 6.77054688 1.68359375 7.71484375 C1.76044976 9.96159732 1.76044976 9.96159732 3 11 C3.23810529 12.89014448 3.41531491 14.78811146 3.5625 16.6875 C3.64628906 17.72261719 3.73007812 18.75773437 3.81640625 19.82421875 C3.99372022 22.89137313 4.03223402 25.92855875 4 29 C3.67 29 3.34 29 3 29 C0.41954024 19.03143819 -0.38747513 10.24656458 0 0 Z " fill="#50A3CC" transform="translate(34,162)"/>
<path d="M0 0 C0.66 0.66 1.32 1.32 2 2 C1.16807129 1.98428955 1.16807129 1.98428955 0.31933594 1.96826172 C-2.20372959 1.92657996 -4.72672253 1.90063562 -7.25 1.875 C-8.12269531 1.85824219 -8.99539062 1.84148437 -9.89453125 1.82421875 C-11.16103516 1.81455078 -11.16103516 1.81455078 -12.453125 1.8046875 C-13.61569824 1.78897705 -13.61569824 1.78897705 -14.80175781 1.77294922 C-17.27332532 2.02823107 -18.80432983 2.87907574 -21 4 C-23.33203812 4.0777346 -25.66839059 4.08967728 -28 4 C-21.75760083 -2.24239917 -8.12569631 -1.81328458 0 0 Z " fill="#6FB5DA" transform="translate(263,173)"/>
<path d="M0 0 C2.31 0.66 4.62 1.32 7 2 C7.33 3.32 7.66 4.64 8 6 C5.08517222 6.80967438 3.53886783 7.21845993 0.6875 6.0625 C0.130625 5.711875 -0.42625 5.36125 -1 5 C-0.67 3.35 -0.34 1.7 0 0 Z " fill="#505262" transform="translate(340,263)"/>
<path d="M0 0 C2.20923793 0.453953 4.41735553 0.91336006 6.625 1.375 C8.46964844 1.75785156 8.46964844 1.75785156 10.3515625 2.1484375 C13.65820196 2.92022273 16.80141713 3.86819375 20 5 C20 5.33 20 5.66 20 6 C13.84765625 6.09765625 13.84765625 6.09765625 12 6 C11.67 5.67 11.34 5.34 11 5 C9.52603261 4.79231771 8.0450874 4.63283983 6.5625 4.5 C2.21917808 4.10958904 2.21917808 4.10958904 0 3 C0 2.01 0 1.02 0 0 Z " fill="#67BBEB" transform="translate(144,138)"/>
<path d="M0 0 C1.17219543 0.78345715 2.33763668 1.57702836 3.5 2.375 C4.47453125 3.03628906 4.47453125 3.03628906 5.46875 3.7109375 C5.9740625 4.13632813 6.479375 4.56171875 7 5 C7 5.66 7 6.32 7 7 C7.763125 7.268125 8.52625 7.53625 9.3125 7.8125 C11.87380884 8.94424112 13.19692938 9.91223401 15 12 C12.36 11.67 9.72 11.34 7 11 C6.67 9.35 6.34 7.7 6 6 C4.35 6 2.7 6 1 6 C0.67 4.02 0.34 2.04 0 0 Z " fill="#69BAEC" transform="translate(64,104)"/>
<path d="M0 0 C-2.40502363 2.63520741 -5.0185849 4.40302943 -8.0625 6.25 C-8.94035156 6.79140625 -9.81820312 7.3328125 -10.72265625 7.890625 C-11.47417969 8.25671875 -12.22570312 8.6228125 -13 9 C-13.66 8.67 -14.32 8.34 -15 8 C-10.32893244 2.03141368 -7.91380867 -0.35971858 0 0 Z " fill="#61B8EF" transform="translate(230,299)"/>
<path d="M0 0 C2.625 0.9375 2.625 0.9375 5 2 C4 5 4 5 1.625 6.75 C-1 8 -1 8 -4 7 C-3.39816251 4.97954558 -2.72693904 2.97888961 -2 1 C-1.34 0.67 -0.68 0.34 0 0 Z " fill="#F0E3CE" transform="translate(253,314)"/>
<path d="M0 0 C0.66 0.99 1.32 1.98 2 3 C-3.82478551 6.03901852 -8.48208608 6.3540919 -15 6 C-11.93024413 3.95349609 -9.30915848 3.00295435 -5.8125 1.875 C-4.72582031 1.52179688 -3.63914062 1.16859375 -2.51953125 0.8046875 C-1.68808594 0.53914063 -0.85664062 0.27359375 0 0 Z " fill="#53A8D4" transform="translate(91,265)"/>
<path d="M0 0 C0.33 0.66 0.66 1.32 1 2 C3.02463255 2.65213292 3.02463255 2.65213292 5 3 C4.01 3.495 4.01 3.495 3 4 C2.01 3.67 1.02 3.34 0 3 C2.36292656 5.52588702 3.66462511 6.88820837 7 8 C7.99 7.01 8.98 6.02 10 5 C9.125 9.75 9.125 9.75 8 12 C7.34 12 6.68 12 6 12 C6 11.34 6 10.68 6 10 C5.05125 9.690625 4.1025 9.38125 3.125 9.0625 C0 8 0 8 -2 7 C-1.125 2.25 -1.125 2.25 0 0 Z " fill="#D7D0C8" transform="translate(346,247)"/>
<path d="M0 0 C4.45143264 0.64268404 8.58881647 1.70666643 12.875 3.0625 C14.02742188 3.42472656 15.17984375 3.78695312 16.3671875 4.16015625 C17.23601562 4.43730469 18.10484375 4.71445313 19 5 C19 5.33 19 5.66 19 6 C12.70825188 6.25166992 7.74043592 5.87021796 2 3 C2 2.34 2 1.68 2 1 C1.34 0.67 0.68 0.34 0 0 Z " fill="#69BEEC" transform="translate(102,127)"/>
<path d="M0 0 C5.75 0.875 5.75 0.875 8 2 C8 3.32 8 4.64 8 6 C4.37471432 6.20140476 2.13498292 5.85776765 -1 4 C-0.67 2.68 -0.34 1.36 0 0 Z " fill="#4C4F5F" transform="translate(348,245)"/>
<path d="M0 0 C1.31613281 -0.02578125 2.63226563 -0.0515625 3.98828125 -0.078125 C7.79523836 0.25955652 9.64686052 1.01510058 12.6875 3.25 C11.6975 3.745 11.6975 3.745 10.6875 4.25 C9.98625 3.940625 9.285 3.63125 8.5625 3.3125 C2.765237 1.17003324 -3.35169183 2.25653197 -9.3125 3.25 C-9.3125 2.59 -9.3125 1.93 -9.3125 1.25 C-6.32534862 -0.24357569 -3.27362064 0.02496565 0 0 Z " fill="#54A8D4" transform="translate(123.3125,306.75)"/>
<path d="M0 0 C0.66 0.99 1.32 1.98 2 3 C1.34 3 0.68 3 0 3 C-0.18175781 3.92683594 -0.36351562 4.85367188 -0.55078125 5.80859375 C-0.80214844 7.00613281 -1.05351562 8.20367187 -1.3125 9.4375 C-1.55613281 10.63246094 -1.79976563 11.82742187 -2.05078125 13.05859375 C-2.52064453 14.51458984 -2.52064453 14.51458984 -3 16 C-3.99 16.33 -4.98 16.66 -6 17 C-6.66 17.66 -7.32 18.32 -8 19 C-7.38516675 16.266235 -6.57072617 13.85825882 -5.37109375 11.328125 C-4.90219727 10.33232422 -4.90219727 10.33232422 -4.42382812 9.31640625 C-4.09833984 8.63449219 -3.77285156 7.95257813 -3.4375 7.25 C-2.9434668 6.20392578 -2.9434668 6.20392578 -2.43945312 5.13671875 C-1.62952288 3.4229533 -0.81519362 1.71126806 0 0 Z " fill="#D3BFA3" transform="translate(346,244)"/>
<path d="M0 0 C2.9375 0.375 2.9375 0.375 6 1 C6.33 1.66 6.66 2.32 7 3 C7.99 3 8.98 3 10 3 C9.01 3.495 9.01 3.495 8 4 C8.33 5.32 8.66 6.64 9 8 C9.66 8 10.32 8 11 8 C10.67 8.99 10.34 9.98 10 11 C6.40365256 7.50640535 3.16548033 3.88901869 0 0 Z " fill="#4EA1CC" transform="translate(60,230)"/>
<path d="M0 0 C3.63 1.32 7.26 2.64 11 4 C10.01 5.485 10.01 5.485 9 7 C8.37351562 6.77183594 7.74703125 6.54367187 7.1015625 6.30859375 C6.28429687 6.02113281 5.46703125 5.73367188 4.625 5.4375 C3.81289063 5.14746094 3.00078125 4.85742188 2.1640625 4.55859375 C-0.02767749 3.74026972 -0.02767749 3.74026972 -2 5 C-1.34 3.35 -0.68 1.7 0 0 Z " fill="#ECE8DD" transform="translate(340,260)"/>
<path d="M0 0 C2.37948772 0.17625835 3.70225849 0.69719773 5.37890625 2.40234375 C6.62115486 3.90649092 7.81376056 5.45129851 9 7 C7.35 6.67 5.7 6.34 4 6 C4 5.34 4 4.68 4 4 C2.35 4 0.7 4 -1 4 C-0.67 2.68 -0.34 1.36 0 0 Z M-2 4 C-2 7 -2 7 -2 7 Z " fill="#59B4ED" transform="translate(55,97)"/>
<path d="M0 0 C3.3 0 6.6 0 10 0 C9.01 0.495 9.01 0.495 8 1 C8.99 2.32 9.98 3.64 11 5 C10.67 5.66 10.34 6.32 10 7 C8.51719804 6.21516341 7.0388502 5.42190666 5.5625 4.625 C4.73878906 4.18414062 3.91507813 3.74328125 3.06640625 3.2890625 C1 2 1 2 0 0 Z " fill="#5DAFD8" transform="translate(54,334)"/>
<path d="M0 0 C0.99 0.495 0.99 0.495 2 1 C2 1.66 2 2.32 2 3 C2.66 3 3.32 3 4 3 C5.5078125 5.1875 5.5078125 5.1875 7.125 8 C7.66382813 8.928125 8.20265625 9.85625 8.7578125 10.8125 C9.37269531 11.8953125 9.37269531 11.8953125 10 13 C8.68 13 7.36 13 6 13 C5.896875 12.38125 5.79375 11.7625 5.6875 11.125 C5.12474627 8.63473516 5.12474627 8.63473516 2 7 C0.8125 3.375 0.8125 3.375 0 0 Z " fill="#71BBEC" transform="translate(196,168)"/>
<path d="M0 0 C0.99 0.33 1.98 0.66 3 1 C-1.2954975 4.74123976 -5.99900452 7.34151874 -11 10 C-11 6.99472353 -9.05564773 6.05564773 -7 4 C-5.33333333 3.33333333 -3.66666667 2.66666667 -2 2 C-1.34 1.34 -0.68 0.68 0 0 Z " fill="#FBEED3" transform="translate(291,292)"/>
<path d="M0 0 C0.99 0 1.98 0 3 0 C2.54300722 5.02692063 0.00758252 8.14896261 -3 12 C-4.04449911 8.86650268 -3.93423645 8.01031744 -3 5 C-2.01 5 -1.02 5 0 5 C0 3.35 0 1.7 0 0 Z " fill="#71BDEE" transform="translate(255,266)"/>
<path d="M0 0 C5.875 0.875 5.875 0.875 7 2 C7.04063832 3.66617115 7.042721 5.33388095 7 7 C4.36 7 1.72 7 -1 7 C2 5 2 5 4 5 C2.68 3.35 1.36 1.7 0 0 Z " fill="#57A8D3" transform="translate(93,258)"/>
<path d="M0 0 C3.63559661 3.43361902 6.36113346 6.7973607 9 11 C7.35 10.67 5.7 10.34 4 10 C3.67 8.68 3.34 7.36 3 6 C2.01 6 1.02 6 0 6 C0 4.02 0 2.04 0 0 Z " fill="#60B7EC" transform="translate(285,196)"/>
<path d="M0 0 C0.99 0.33 1.98 0.66 3 1 C3 1.99 3 2.98 3 4 C2.38125 4.103125 1.7625 4.20625 1.125 4.3125 C-1.36526484 4.87525373 -1.36526484 4.87525373 -3 8 C-3.99 8 -4.98 8 -6 8 C-6 6.35 -6 4.7 -6 3 C-4.02 2.67 -2.04 2.34 0 2 C0 1.34 0 0.68 0 0 Z " fill="#30A0E5" transform="translate(266,175)"/>
<path d="M0 0 C5.75 1.875 5.75 1.875 8 3 C8 3.99 8 4.98 8 6 C4.65626525 5.44271087 1.96687001 4.64826111 -1 3 C-0.67 2.01 -0.34 1.02 0 0 Z " fill="#565865" transform="translate(337,269)"/>
<path d="M0 0 C5.75 1.875 5.75 1.875 8 3 C8 3.99 8 4.98 8 6 C4.26512223 5.5020163 2.18762365 5.12508244 -1 3 C-0.67 2.01 -0.34 1.02 0 0 Z " fill="#535663" transform="translate(344,254)"/>
<path d="M0 0 C2.475 0.495 2.475 0.495 5 1 C5 1.66 5 2.32 5 3 C6.32 3 7.64 3 9 3 C9 3.66 9 4.32 9 5 C9.66 5 10.32 5 11 5 C11 5.99 11 6.98 11 8 C8.0280615 6.87548273 5.66559313 5.77706209 3 4 C3 3.34 3 2.68 3 2 C2.01 1.67 1.02 1.34 0 1 C0 0.67 0 0.34 0 0 Z " fill="#5593B5" transform="translate(79,248)"/>
<path d="M0 0 C3 0.25 3 0.25 5 2.25 C5.125 5.875 5.125 5.875 5 9.25 C4.67 9.25 4.34 9.25 4 9.25 C4 7.27 4 5.29 4 3.25 C1.69 3.25 -0.62 3.25 -3 3.25 C-3.33 4.9 -3.66 6.55 -4 8.25 C-4.33 8.25 -4.66 8.25 -5 8.25 C-5.125 5.375 -5.125 5.375 -5 2.25 C-3 0.25 -3 0.25 0 0 Z " fill="#356585" transform="translate(255,196.75)"/>
<path d="M0 0 C1.98 0.99 1.98 0.99 4 2 C3.67 2.33 3.34 2.66 3 3 C2.85363946 6.36629251 2.92806521 8.78419562 4 12 C5.98 12 7.96 12 10 12 C10 12.33 10 12.66 10 13 C3.53005966 13.36622304 3.53005966 13.36622304 1.28125 11.8125 C-0.44334597 9.37282766 -0.30267769 7.76872728 -0.1875 4.8125 C-0.16042969 3.91144531 -0.13335937 3.01039063 -0.10546875 2.08203125 C-0.07066406 1.39496094 -0.03585938 0.70789063 0 0 Z " fill="#3598DA" transform="translate(248,196)"/>
<path d="M0 0 C0.33 0 0.66 0 1 0 C1.3125 2.6875 1.3125 2.6875 1 6 C-1.5 8.875 -1.5 8.875 -4 11 C-4.93423645 7.98968256 -5.04449911 7.13349732 -4 4 C-3.34 4 -2.68 4 -2 4 C-1.67 3.01 -1.34 2.02 -1 1 C-0.67 0.67 -0.34 0.34 0 0 Z " fill="#FCE4CC" transform="translate(310,269)"/>
<path d="M0 0 C1.62490954 -0.02698189 3.24994633 -0.04638757 4.875 -0.0625 C5.77992187 -0.07410156 6.68484375 -0.08570313 7.6171875 -0.09765625 C10 0 10 0 12 1 C12 1.99 12 2.98 12 4 C10.1858073 3.71905418 8.37364999 3.42493567 6.5625 3.125 C5.04849609 2.88136719 5.04849609 2.88136719 3.50390625 2.6328125 C2.67761719 2.42398437 1.85132812 2.21515625 1 2 C0.67 1.34 0.34 0.68 0 0 Z " fill="#218ECB" transform="translate(90,256)"/>
<path d="M0 0 C0.33 0.66 0.66 1.32 1 2 C3.05556219 2.50585698 3.05556219 2.50585698 5.4375 2.6875 C6.64212891 2.81705078 6.64212891 2.81705078 7.87109375 2.94921875 C10.05512314 3.16761148 10.05512314 3.16761148 12 2 C11.34 3.98 10.68 5.96 10 8 C9.67 7.34 9.34 6.68 9 6 C5.77026531 4.92342177 2.35549101 4.53382812 -1 4 C-0.67 2.68 -0.34 1.36 0 0 Z " fill="#E3DDD4" transform="translate(337,266)"/>
<path d="M0 0 C0.33 0.66 0.66 1.32 1 2 C0.01 2.495 0.01 2.495 -1 3 C-1.33 3.99 -1.66 4.98 -2 6 C-4.375 7.75 -4.375 7.75 -7 9 C-7.99 8.67 -8.98 8.34 -10 8 C-8.625 6.5 -8.625 6.5 -7 5 C-6.34 5 -5.68 5 -5 5 C-5 4.34 -5 3.68 -5 3 C-2.5 1.375 -2.5 1.375 0 0 Z " fill="#6AB6DD" transform="translate(223,183)"/>
<path d="M0 0 C0.33 0.66 0.66 1.32 1 2 C0.06553465 4.03144641 -0.93224776 6.03533587 -2 8 C-2.66 8 -3.32 8 -4 8 C-4.33 8.66 -4.66 9.32 -5 10 C-5 9.34 -5 8.68 -5 8 C-5.66 8 -6.32 8 -7 8 C-6.1875 6.0625 -6.1875 6.0625 -5 4 C-4.01 3.67 -3.02 3.34 -2 3 C-1.34 2.01 -0.68 1.02 0 0 Z " fill="#D5D1C3" transform="translate(324,313)"/>
<path d="M0 0 C-1.98 0.99 -1.98 0.99 -4 2 C-4 2.66 -4 3.32 -4 4 C-5.96147874 5.38938077 -7.96166576 6.7260411 -10 8 C-10 6.68 -10 5.36 -10 4 C-9.01 4 -8.02 4 -7 4 C-7 2.68 -7 1.36 -7 0 C-2.25 -1.125 -2.25 -1.125 0 0 Z " fill="#74C1EE" transform="translate(243,289)"/>
<path d="M0 0 C3.3 0.99 6.6 1.98 10 3 C6 4 6 4 3 4 C3 6.97 3 9.94 3 13 C0.66765399 8.33530797 0.45413737 5.14689023 0 0 Z " fill="#217BAE" transform="translate(37,183)"/>
<path d="M0 0 C3.73569921 2.17191815 6.05715203 5.18191533 8.6875 8.5625 C5.75 7.75 5.75 7.75 2.6875 6.5625 C2.3575 5.5725 2.0275 4.5825 1.6875 3.5625 C-1.82440809 2.33280122 -1.82440809 2.33280122 -5.3125 1.5625 C-2.3125 -0.4375 -2.3125 -0.4375 0 0 Z " fill="#7CC6F0" transform="translate(182.3125,153.4375)"/>
<path d="M0 0 C1.25541557 3.76624671 0.37061958 5.37188934 -1 9 C-2.32 8.67 -3.64 8.34 -5 8 C-4.34 6.02 -3.68 4.04 -3 2 C-2.01 2 -1.02 2 0 2 C0 1.34 0 0.68 0 0 Z " fill="#D0CBC0" transform="translate(309,329)"/>
<path d="M0 0 C0.598125 0.20625 1.19625 0.4125 1.8125 0.625 C1.8125 1.285 1.8125 1.945 1.8125 2.625 C1.1525 2.625 0.4925 2.625 -0.1875 2.625 C-0.1875 3.285 -0.1875 3.945 -0.1875 4.625 C-2.1675 5.615 -2.1675 5.615 -4.1875 6.625 C-4.5175 4.975 -4.8475 3.325 -5.1875 1.625 C-2.1875 -0.375 -2.1875 -0.375 0 0 Z " fill="#44A3D5" transform="translate(86.1875,324.375)"/>
<path d="M0 0 C0.66 0.33 1.32 0.66 2 1 C-1.49087093 5.0042343 -3.64951939 6.62671065 -9 7 C-6.25604436 4.05278838 -3.61662784 1.80831392 0 0 Z " fill="#E0C8AB" transform="translate(267,310)"/>
<path d="M0 0 C5.852795 0.51482919 11.3297637 1.45357192 17 3 C17 3.33 17 3.66 17 4 C10.54107286 4.40368295 5.93891422 3.5915262 0 1 C0 0.67 0 0.34 0 0 Z " fill="#7CC5EF" transform="translate(121,133)"/>
<path d="M0 0 C2.27203802 0.2821289 4.54261684 0.57602856 6.8125 0.875 C8.70935547 1.11863281 8.70935547 1.11863281 10.64453125 1.3671875 C14 2 14 2 17 4 C11.72 3.67 6.44 3.34 1 3 C0.67 2.01 0.34 1.02 0 0 Z " fill="#1D99E5" transform="translate(111,267)"/>
<path d="M0 0 C3.37462715 0.54723683 5.08235 1.0549 8 3 C7.67 3.99 7.34 4.98 7 6 C4.0625 4.6875 4.0625 4.6875 1 3 C0.67 2.01 0.34 1.02 0 0 Z " fill="#4C5061" transform="translate(346,250)"/>
<path d="M0 0 C0.99 0.33 1.98 0.66 3 1 C3.33 1.99 3.66 2.98 4 4 C4.66 4.33 5.32 4.66 6 5 C6.625 7.5625 6.625 7.5625 7 10 C6.34 10 5.68 10 5 10 C3.7109375 8.3203125 3.7109375 8.3203125 2.375 6.125 C1.92898437 5.40570313 1.48296875 4.68640625 1.0234375 3.9453125 C0 2 0 2 0 0 Z " fill="#6FB6D8" transform="translate(34,311)"/>
<path d="M0 0 C-5.29230769 3.07692308 -5.29230769 3.07692308 -8.875 2.6875 C-9.57625 2.460625 -10.2775 2.23375 -11 2 C-7.72338241 -1.27661759 -4.29690696 -1.43230232 0 0 Z " fill="#6EBDEC" transform="translate(214,309)"/>
<path d="M0 0 C4.44155535 3.94410115 4.61703609 6.25554132 5 12 C3 11 3 11 2.1484375 8.49609375 C1.89320312 7.48675781 1.63796875 6.47742188 1.375 5.4375 C1.11460938 4.42558594 0.85421875 3.41367187 0.5859375 2.37109375 C0.39257812 1.58863281 0.19921875 0.80617188 0 0 Z " fill="#68B6DC" transform="translate(28,296)"/>
<path d="M0 0 C1.98 0.495 1.98 0.495 4 1 C4 2.32 4 3.64 4 5 C2.35 5 0.7 5 -1 5 C-0.67 3.35 -0.34 1.7 0 0 Z " fill="#CF3023" transform="translate(311,280)"/>
<path d="M0 0 C-1.64169528 2.02054804 -3.30911778 4.02043058 -5 6 C-5.33 6 -5.66 6 -6 6 C-6 4.02 -6 2.04 -6 0 C-3.50907189 -1.24546405 -2.58919267 -0.7767578 0 0 Z " fill="#479FCD" transform="translate(82,332)"/>
<path d="M0 0 C0.33 0 0.66 0 1 0 C0.67 3.96 0.34 7.92 0 12 C-2 10 -2 10 -2.01171875 7.87109375 C-1.90472656 7.06800781 -1.79773438 6.26492187 -1.6875 5.4375 C-1.58824219 4.63183594 -1.48898437 3.82617188 -1.38671875 2.99609375 C-1 1 -1 1 0 0 Z " fill="#F4DEBF" transform="translate(307,236)"/>
<path d="M0 0 C0.66 0.33 1.32 0.66 2 1 C0.68 4.3 -0.64 7.6 -2 11 C-2.66 10.67 -3.32 10.34 -4 10 C-3.67 7.69 -3.34 5.38 -3 3 C-2.34 3 -1.68 3 -1 3 C-0.67 2.01 -0.34 1.02 0 0 Z " fill="#FDF0D9" transform="translate(335,264)"/>
<path d="M0 0 C0.7425 0.78375 1.485 1.5675 2.25 2.375 C4.54433318 4.56504531 6.12158858 5.82731386 9 7 C4.44262737 6.56179109 1.42346555 6.14958831 -2 3 C-1.34 2.01 -0.68 1.02 0 0 Z " fill="#249FEB" transform="translate(37,143)"/>
<path d="M0 0 C0.33 0 0.66 0 1 0 C1.37211538 7.56634615 1.37211538 7.56634615 -0.51171875 9.76171875 C-1.00285156 10.17035156 -1.49398437 10.57898438 -2 11 C-1.85892253 9.54119891 -1.71197585 8.08296449 -1.5625 6.625 C-1.48128906 5.81289062 -1.40007813 5.00078125 -1.31640625 4.1640625 C-1 2 -1 2 0 0 Z " fill="#54ADE5" transform="translate(36,136)"/>
<path d="M0 0 C1.98 0 3.96 0 6 0 C3.64722731 2.72426311 1.37503669 3.8141763 -2 5 C-1.34 3.35 -0.68 1.7 0 0 Z " fill="#76C3F1" transform="translate(224,299)"/>
<path d="M0 0 C0.66 0 1.32 0 2 0 C4 5.625 4 5.625 4 9 C2 7.875 2 7.875 0 6 C-0.25 2.8125 -0.25 2.8125 0 0 Z " fill="#BD3C2D" transform="translate(306,281)"/>
<path d="M0 0 C0.33 0.66 0.66 1.32 1 2 C2.6476038 2.71247732 4.31763529 3.37400383 6 4 C7.34050052 4.65213539 8.67661368 5.31379969 10 6 C9.67 6.66 9.34 7.32 9 8 C7.67968405 7.43457996 6.3688699 6.84693528 5.0625 6.25 C3.96615234 5.76273437 3.96615234 5.76273437 2.84765625 5.265625 C1 4 1 4 0.24609375 1.859375 C0.16488281 1.24578125 0.08367187 0.6321875 0 0 Z " fill="#F4E6D5" transform="translate(335,270)"/>
<path d="M0 0 C-0.66 0.66 -1.32 1.32 -2 2 C-2.99 2 -3.98 2 -5 2 C-5 2.66 -5 3.32 -5 4 C-6.98 4.99 -6.98 4.99 -9 6 C-8.6875 4.125 -8.6875 4.125 -8 2 C-4.77208445 -0.1519437 -3.71599191 -0.20086443 0 0 Z " fill="#7BC4EE" transform="translate(289,220)"/>
<path d="M0 0 C1.65 0.33 3.3 0.66 5 1 C5 1.99 5 2.98 5 4 C3.02 4.33 1.04 4.66 -1 5 C-0.67 3.35 -0.34 1.7 0 0 Z " fill="#504C47" transform="translate(253,200)"/>
<path d="M0 0 C4.40114397 0.50298788 6.71195019 2.08772731 10 5 C7.69 4.67 5.38 4.34 3 4 C2.67 3.01 2.34 2.02 2 1 C1.34 0.67 0.68 0.34 0 0 Z " fill="#78C7EE" transform="translate(166,145)"/>
<path d="M0 0 C0.99 0.33 1.98 0.66 3 1 C1.02 5.455 1.02 5.455 -1 10 C-1.33 10 -1.66 10 -2 10 C-1.125 2.25 -1.125 2.25 0 0 Z " fill="#4E8CB4" transform="translate(41,114)"/>
<path d="M0 0 C1.9375 0.6875 1.9375 0.6875 4 2 C4.75 4.625 4.75 4.625 5 7 C4.01 7.495 4.01 7.495 3 8 C0 2.25 0 2.25 0 0 Z " fill="#4BA4D1" transform="translate(43,203)"/>
<path d="M0 0 C-2.55068845 2.35448165 -3.71017358 2.98327924 -7.25 3.1875 C-8.1575 3.125625 -9.065 3.06375 -10 3 C-6.81859267 -0.48439851 -4.56758339 -1.41752588 0 0 Z " fill="#80C5E2" transform="translate(76,339)"/>
<path d="M0 0 C1.65 0 3.3 0 5 0 C5 0.66 5 1.32 5 2 C3.37373596 3.38232443 1.7074998 4.71937515 0 6 C0 4.02 0 2.04 0 0 Z " fill="#6EBDED" transform="translate(243,282)"/>
<path d="M0 0 C1 2 1 2 0.25 5 C-1 8 -1 8 -4 10 C-3.52449439 8.51965236 -3.04448784 7.04074979 -2.5625 5.5625 C-2.29566406 4.73878906 -2.02882813 3.91507812 -1.75390625 3.06640625 C-1 1 -1 1 0 0 Z " fill="#FDFBF2" transform="translate(260,297)"/>
<path d="M0 0 C1.98 1.65 3.96 3.3 6 5 C5.34 6.32 4.68 7.64 4 9 C4 7.68 4 6.36 4 5 C3.01 4.67 2.02 4.34 1 4 C0.3125 1.9375 0.3125 1.9375 0 0 Z " fill="#77BEEA" transform="translate(275,181)"/>
<path d="M0 0 C2.97 0 5.94 0 9 0 C9 0.66 9 1.32 9 2 C9.66 2.33 10.32 2.66 11 3 C9.35 3 7.7 3 6 3 C6 2.34 6 1.68 6 1 C4.02 1 2.04 1 0 1 C0 0.67 0 0.34 0 0 Z " fill="#49A8E8" transform="translate(157,144)"/>
<path d="M0 0 C3.71888239 0.50712033 6.73454239 1.11608215 10 3 C8.72125 3.061875 7.4425 3.12375 6.125 3.1875 C5.40570313 3.22230469 4.68640625 3.25710937 3.9453125 3.29296875 C3.30335938 3.19628906 2.66140625 3.09960938 2 3 C1.34 2.01 0.68 1.02 0 0 Z " fill="#7BC3EB" transform="translate(154,141)"/>
</svg>
